<svg xmlns="http://www.w3.org/2000/svg" viewBox="0 0 960 1200" role="img" aria-labelledby="title desc"><title id="title">Abstract partnership connection</title><desc id="desc">Two forged rings connected by a bright bronze bridge.</desc><defs><radialGradient id="bg" cx="50%" cy="30%" r="72%"><stop offset="0" stop-color="#6d4519" stop-opacity=".45"/><stop offset=".55" stop-color="#11130f"/><stop offset="1" stop-color="#030403"/></radialGradient><linearGradient id="gold" x1="0" y1="0" x2="1" y2="1"><stop stop-color="#f2d18a"/><stop offset="1" stop-color="#8c581a"/></linearGradient><filter id="glow"><feGaussianBlur stdDeviation="28"/></filter></defs><rect width="960" height="1200" fill="url(#bg)"/><circle cx="480" cy="350" r="260" fill="#d28a2d" opacity=".12" filter="url(#glow)"/><g fill="none" stroke="url(#gold)" stroke-width="18"><circle cx="335" cy="430" r="180"/><circle cx="625" cy="430" r="180"/></g><path d="M405 430h150" stroke="#f0c76d" stroke-width="18" stroke-linecap="round"/><g fill="#090b09" stroke="#c58b36" stroke-width="4"><circle cx="335" cy="430" r="72"/><circle cx="625" cy="430" r="72"/><rect x="390" y="690" width="180" height="180" rx="32" transform="rotate(45 480 780)"/></g><g stroke="#c58b36" stroke-opacity=".4" stroke-width="3"><path d="M210 240 480 780 750 240M150 670h660M280 900h400"/></g><circle cx="480" cy="780" r="12" fill="#f0c76d"/><path d="M0 910 C250 790 470 1020 960 800V1200H0Z" fill="#020302" opacity=".9"/></svg>
